<svg width="182" height="113" viewBox="0 0 182 113" fill="none" xmlns="http://www.w3.org/2000/svg">
<path d="M4.94603 98.5727L19.3159 96.3197L19.58 98.0036L9.5251 107.603L9.5471 107.743L20.8297 105.974L21.1025 107.715L6.73265 109.968L6.46862 108.284L16.5471 98.6517L16.5251 98.5114L5.21446 100.285L4.94603 98.5727Z" fill="black"/>
<path d="M13.4467 74.3244C14.9679 74.5232 16.2466 74.9696 17.2828 75.6637C18.3191 76.3578 19.0751 77.223 19.5509 78.2593C20.0267 79.2956 20.1842 80.4287 20.0235 81.6588C19.8628 82.8889 19.4193 83.9435 18.6933 84.8228C17.9672 85.702 17.0142 86.3439 15.8344 86.7485C14.6546 87.153 13.3042 87.2559 11.783 87.0571C10.2619 86.8583 8.98316 86.4119 7.94693 85.7178C6.9107 85.0237 6.15469 84.1586 5.67888 83.1223C5.20307 82.086 5.04554 80.9528 5.20626 79.7227C5.36699 78.4926 5.81041 77.438 6.53651 76.5587C7.2626 75.6795 8.21555 75.0376 9.39533 74.6331C10.5751 74.2285 11.9256 74.1257 13.4467 74.3244ZM13.2259 76.0146C11.977 75.8514 10.8957 75.9226 9.98195 76.2282C9.06879 76.5291 8.34523 77.0052 7.81128 77.6565C7.27793 78.303 6.95421 79.0629 6.8401 79.9362C6.726 80.8095 6.84329 81.6294 7.19198 82.396C7.54129 83.1579 8.11823 83.8039 8.9228 84.334C9.72799 84.8594 10.755 85.2037 12.0039 85.3669C13.2527 85.5301 14.3337 85.4613 15.2469 85.1604C16.1607 84.8548 16.8842 84.3787 17.4176 83.7321C17.9515 83.0809 18.2755 82.3186 18.3897 81.4453C18.5038 80.5721 18.3862 79.7545 18.0369 78.9926C17.6882 78.226 17.1112 77.58 16.306 77.0546C15.5015 76.5244 14.4747 76.1778 13.2259 76.0146Z" fill="black"/>
<path d="M23.7932 64.992L8.92823 62.4578L9.68372 60.8353L21.7063 63.0802L21.7663 62.9514L12.3339 55.1436L13.1733 53.3408L25.2199 55.5342L25.2799 55.4055L15.8235 47.6492L16.579 46.0267L28.0862 55.7721L27.3188 57.4203L15.456 55.4379L15.4081 55.5409L24.5607 63.3438L23.7932 64.992Z" fill="black"/>
<path d="M32.6136 27.1409L42.503 37.8072L41.2114 39.0047L31.322 28.3384L32.6136 27.1409Z" fill="black"/>
<path d="M42.1344 19.5811L42.8685 20.6277C43.0915 20.9456 43.2713 21.3256 43.4078 21.7676C43.5456 22.2031 43.6223 22.667 43.6379 23.1592C43.6546 23.6448 43.5949 24.1204 43.4589 24.586L42.2904 24.5034C42.2899 23.9832 42.247 23.4726 42.1615 22.9715C42.0773 22.4638 41.8842 21.9949 41.5824 21.5646L40.832 20.4947L42.1344 19.5811Z" fill="black"/>
<path d="M50.9619 13.9535L52.903 13.1461L62.1042 22.3954L62.2616 22.3299L62.1885 9.28354L64.1295 8.47612L69.716 21.906L68.1946 22.5388L63.9502 12.3353L63.819 12.3898L63.8666 24.3392L62.3977 24.9502L53.9565 16.4924L53.8253 16.547L58.0697 26.7505L56.5484 27.3834L50.9619 13.9535Z" fill="black"/>
<path d="M88.3445 19.0409L88.7399 4.50078L90.5006 4.54866L90.1477 17.5268L96.9066 17.7106L96.8641 19.2725L88.3445 19.0409Z" fill="black"/>
<path d="M104.771 20.4141L108.486 6.35106L116.973 8.59313L116.574 10.1038L109.79 8.3116L108.535 13.0634L114.88 14.7395L114.481 16.2502L108.136 14.574L106.873 19.3533L113.767 21.1745L113.368 22.6852L104.771 20.4141Z" fill="black"/>
<path d="M120.974 25.7297L119.356 24.8397L131.046 14.6698L132.639 15.5462L130.308 30.8648L128.69 29.9747L130.783 17.1515L130.684 17.0968L120.974 25.7297ZM124.31 21.0802L130.831 24.6678L130.078 26.0368L123.557 22.4492L124.31 21.0802Z" fill="black"/>
<path d="M136.065 35.2483L146.027 24.6494L149.608 28.0153C150.436 28.7936 150.983 29.5739 151.248 30.3562C151.517 31.135 151.549 31.8894 151.344 32.6193C151.138 33.3491 150.742 34.0263 150.155 34.6508C149.569 35.2753 148.92 35.709 148.211 35.9521C147.502 36.1952 146.754 36.2066 145.966 35.9865C145.182 35.7629 144.38 35.2653 143.558 34.4935L140.66 31.7696L141.75 30.6103L144.607 33.2953C145.172 33.8271 145.706 34.1724 146.206 34.331C146.71 34.4929 147.183 34.495 147.623 34.3374C148.071 34.1795 148.494 33.8883 148.893 33.464C149.292 33.0396 149.561 32.5941 149.7 32.1275C149.84 31.661 149.817 31.1777 149.63 30.6776C149.447 30.1742 149.069 29.6533 148.497 29.115L146.24 26.9942L137.349 36.4546L136.065 35.2483ZM145.529 35.176L143.662 42.3887L142.172 40.9879L144.08 33.8141L145.529 35.176Z" fill="black"/>
<path d="M166.599 50.0059L154.208 57.6249L153.315 56.1729L158.892 43.439L158.818 43.318L149.089 49.3001L148.167 47.7997L160.557 40.1807L161.45 41.6327L155.864 54.4057L155.938 54.5267L165.691 48.5297L166.599 50.0059Z" fill="black"/>
<path d="M171.982 62.8404L158.24 67.6063L157.663 65.9422L171.405 61.1763L171.982 62.8404Z" fill="black"/>
<path d="M176.588 85.784L162.141 87.4724L161.943 85.7793L172.366 76.5812L172.35 76.4401L161.006 77.7657L160.802 76.0162L175.249 74.3279L175.447 76.0209L164.999 85.2506L165.015 85.3917L176.387 84.0628L176.588 85.784Z" fill="black"/>
<path d="M170.259 107.796C170.757 107.719 171.213 107.585 171.628 107.393C172.047 107.208 172.418 106.964 172.741 106.662C173.063 106.364 173.33 106.01 173.541 105.598C173.752 105.187 173.901 104.721 173.986 104.203C174.125 103.352 174.032 102.543 173.707 101.775C173.381 101.007 172.825 100.347 172.037 99.7958C171.249 99.2446 170.234 98.8672 168.991 98.6637C167.748 98.4602 166.665 98.4963 165.742 98.7721C164.819 99.048 164.079 99.505 163.524 100.143C162.968 100.782 162.618 101.545 162.473 102.432C162.338 103.255 162.395 104.008 162.642 104.691C162.894 105.38 163.314 105.953 163.901 106.409C164.493 106.87 165.228 107.173 166.106 107.317L165.907 107.831L166.614 103.514L168.156 103.766L167.26 109.233L165.718 108.981C164.536 108.787 163.55 108.366 162.758 107.719C161.967 107.076 161.402 106.273 161.066 105.311C160.733 104.355 160.66 103.306 160.847 102.166C161.055 100.895 161.537 99.8275 162.292 98.9629C163.047 98.1029 164.02 97.4946 165.211 97.1378C166.401 96.7857 167.753 96.7336 169.267 96.9816C170.402 97.1675 171.398 97.4866 172.255 97.9387C173.116 98.3963 173.82 98.9579 174.368 99.6235C174.917 100.289 175.299 101.033 175.514 101.855C175.73 102.677 175.762 103.549 175.612 104.469C175.488 105.226 175.258 105.913 174.922 106.529C174.589 107.152 174.173 107.686 173.673 108.131C173.177 108.583 172.613 108.934 171.982 109.186C171.355 109.438 170.683 109.573 169.966 109.59L170.259 107.796Z" fill="black"/>
</svg>
