<svg width="166" height="102" viewBox="0 0 166 102" fill="none" xmlns="http://www.w3.org/2000/svg">
<path d="M7.82089 99.0365L6.27459 99.2609L4.70757 88.465L6.25386 88.2405L6.91087 92.767L19.7592 90.902L20.0122 92.6451L7.16388 94.5101L7.82089 99.0365Z" fill="black"/>
<path d="M19.0546 79.0742L4.66284 76.9654L4.9182 75.2227L11.327 76.1617L12.4515 68.488L6.04261 67.5489L6.29797 65.8062L20.6898 67.915L20.4344 69.6577L13.9974 68.7145L12.873 76.3883L19.31 77.3315L19.0546 79.0742Z" fill="black"/>
<path d="M23.1652 60.1594L9.92878 54.1289L13.5683 46.1405L14.9902 46.7883L12.0809 53.1739L16.5534 55.2115L19.2742 49.2396L20.6961 49.8874L17.9753 55.8593L22.4736 57.9088L25.43 51.4198L26.8518 52.0677L23.1652 60.1594Z" fill="black"/>
<path d="M28.4985 26.0272L30.1454 24.7205L41.5223 31.1063L41.6559 31.0004L38.0236 18.4696L39.6704 17.1629L48.7113 28.5573L47.4205 29.5815L40.5516 20.9244L40.4403 21.0127L43.7485 32.4951L42.5022 33.4839L32.0725 27.6521L31.9612 27.7404L38.8302 36.3975L37.5394 37.4216L28.4985 26.0272Z" fill="black"/>
<path d="M65.0553 13.8665C65.5602 15.3151 65.7349 16.6582 65.5796 17.8957C65.4242 19.1332 64.9902 20.197 64.2776 21.0872C63.5649 21.9774 62.6229 22.6266 61.4515 23.0349C60.2801 23.4432 59.1386 23.5201 58.027 23.2657C56.9155 23.0113 55.9142 22.4477 55.0234 21.5748C54.1325 20.702 53.4346 19.5413 52.9297 18.0926C52.4248 16.644 52.2501 15.3009 52.4054 14.0634C52.5608 12.826 52.9948 11.7621 53.7074 10.8719C54.42 9.98173 55.3621 9.33249 56.5335 8.92421C57.7049 8.51594 58.8464 8.439 59.958 8.6934C61.0695 8.94781 62.0707 9.51143 62.9616 10.3843C63.8525 11.2571 64.5504 12.4179 65.0553 13.8665ZM63.4457 14.4275C63.0312 13.2382 62.4824 12.3038 61.7993 11.6243C61.1206 10.9432 60.3705 10.5102 59.5489 10.3252C58.7318 10.1386 57.9074 10.1903 57.0758 10.4801C56.2442 10.77 55.564 11.2427 55.0354 11.8983C54.5112 12.5523 54.1927 13.3578 54.08 14.3147C53.9717 15.27 54.1248 16.3423 54.5393 17.5316C54.9538 18.7209 55.5004 19.6561 56.179 20.3372C56.8621 21.0167 57.6122 21.4497 58.4294 21.6363C59.251 21.8213 60.0776 21.7688 60.9092 21.479C61.7408 21.1891 62.4187 20.7172 62.9429 20.0632C63.4716 19.4076 63.79 18.6021 63.8983 17.6468C64.0111 16.6899 63.8602 15.6168 63.4457 14.4275Z" fill="black"/>
<path d="M82.9991 8.21021C82.8865 7.49429 82.5199 6.94915 81.8991 6.5748C81.2783 6.20045 80.5279 6.03006 79.6479 6.06361C79.0044 6.08815 78.4453 6.21371 77.9706 6.44029C77.5007 6.66669 77.1378 6.96719 76.882 7.34179C76.631 7.71622 76.5143 8.13527 76.532 8.59894C76.5468 8.98692 76.6517 9.31697 76.8469 9.58908C77.0466 9.85629 77.2967 10.0766 77.5971 10.2499C77.8973 10.4185 78.2105 10.5558 78.5367 10.6618C78.8628 10.7631 79.162 10.8441 79.4344 10.9048L80.9258 11.246C81.3081 11.3309 81.7344 11.452 82.2048 11.6094C82.6798 11.7666 83.1361 11.9885 83.5734 12.2751C84.0154 12.5568 84.3848 12.9265 84.6818 13.3842C84.9789 13.842 85.1404 14.4115 85.1663 15.0929C85.1963 15.8783 85.0175 16.5958 84.6301 17.2455C84.2473 17.8951 83.6704 18.4217 82.8992 18.8254C82.1328 19.229 81.1913 19.452 80.0747 19.4946C79.0338 19.5343 78.126 19.4007 77.3514 19.0938C76.5816 18.7867 75.9676 18.3411 75.5094 17.7568C75.0559 17.1723 74.7857 16.4837 74.6986 15.691L76.5154 15.6217C76.5837 16.1688 76.7855 16.6159 77.121 16.9633C77.461 17.3057 77.8827 17.5549 78.3862 17.7111C78.8942 17.8623 79.4368 17.9269 80.014 17.9048C80.6859 17.8792 81.285 17.7474 81.8114 17.5094C82.3375 17.2666 82.7493 16.9429 83.0466 16.5383C83.3437 16.129 83.4821 15.6593 83.4619 15.1294C83.4435 14.6468 83.2937 14.2593 83.0125 13.9667C82.7313 13.6742 82.367 13.4417 81.9198 13.2692C81.4725 13.0967 80.9907 12.9493 80.4743 12.8268L78.6664 12.384C77.5184 12.1008 76.6016 11.6691 75.9161 11.0887C75.2307 10.5083 74.8692 9.72846 74.8319 8.74905C74.8009 7.93525 74.9938 7.21715 75.4108 6.59475C75.8322 5.96744 76.4103 5.47157 77.1451 5.10714C77.8844 4.73779 78.7177 4.53544 79.6451 4.50008C80.5819 4.46436 81.421 4.60058 82.1625 4.90873C82.9038 5.21214 83.4983 5.64435 83.9461 6.20535C84.3987 6.76616 84.6508 7.4128 84.7024 8.14527L82.9991 8.21021Z" fill="black"/>
<path d="M95.1168 7.03178L95.4825 5.5127L106.089 8.06638L105.723 9.58547L101.276 8.51478L98.2368 21.137L96.5244 20.7247L99.5635 8.10247L95.1168 7.03178Z" fill="black"/>
<path d="M135.375 25.0854L136.73 26.2114L130.573 33.617C129.937 34.3815 129.189 34.9144 128.329 35.2154C127.476 35.5159 126.58 35.5681 125.64 35.3722C124.704 35.1726 123.797 34.708 122.92 33.9785C122.042 33.249 121.42 32.4422 121.053 31.5581C120.689 30.6704 120.575 29.7782 120.711 28.8814C120.853 27.984 121.243 27.153 121.878 26.3884L128.035 18.9829L129.39 20.109L123.323 27.4052C122.869 27.9514 122.585 28.5373 122.472 29.1631C122.361 29.7852 122.426 30.4029 122.667 31.0161C122.915 31.6288 123.351 32.1939 123.973 32.7115C124.596 33.2291 125.231 33.5539 125.879 33.686C126.529 33.8144 127.148 33.7658 127.736 33.5402C128.331 33.314 128.855 32.9278 129.309 32.3817L135.375 25.0854Z" fill="black"/>
<path d="M146.246 44.0723C146.798 43.6024 147.072 43.005 147.067 42.2801C147.062 41.5552 146.815 40.8263 146.327 40.0933C145.97 39.5574 145.571 39.1461 145.13 38.8597C144.691 38.5771 144.246 38.4246 143.793 38.4021C143.342 38.3835 142.924 38.5028 142.538 38.76C142.214 38.9753 141.988 39.2372 141.858 39.5457C141.734 39.8556 141.677 40.1838 141.686 40.5305C141.699 40.8746 141.745 41.2134 141.825 41.547C141.909 41.878 141.996 42.1755 142.087 42.4395L142.575 43.8895C142.702 44.2598 142.821 44.6867 142.933 45.17C143.047 45.6573 143.096 46.1622 143.08 46.6849C143.07 47.2088 142.948 47.717 142.713 48.2093C142.477 48.7017 142.076 49.1368 141.509 49.5148C140.854 49.9505 140.149 50.1728 139.393 50.1816C138.639 50.1944 137.889 49.9774 137.141 49.5306C136.397 49.0877 135.715 48.4013 135.096 47.4713C134.518 46.6043 134.158 45.7604 134.015 44.9396C133.875 44.1227 133.935 43.3663 134.194 42.6704C134.455 41.9785 134.901 41.3884 135.532 40.9001L136.54 42.4134C136.109 42.7573 135.833 43.1629 135.712 43.6304C135.598 44.0991 135.605 44.589 135.735 45.0999C135.871 45.6121 136.1 46.1086 136.42 46.5894C136.793 47.1489 137.218 47.591 137.696 47.9156C138.178 48.2376 138.669 48.4196 139.169 48.4619C139.673 48.5015 140.146 48.3743 140.587 48.0804C140.989 47.8126 141.242 47.4825 141.344 47.0899C141.447 46.6973 141.455 46.2652 141.368 45.7937C141.282 45.3223 141.156 44.8344 140.991 44.33L140.424 42.5569C140.066 41.43 139.956 40.4228 140.093 39.5351C140.23 38.6474 140.706 37.9319 141.522 37.3886C142.2 36.9372 142.913 36.7267 143.661 36.7572C144.416 36.7891 145.141 37.0232 145.836 37.4594C146.537 37.897 147.144 38.502 147.659 39.2744C148.179 40.0547 148.501 40.8415 148.625 41.6347C148.753 42.4253 148.695 43.1581 148.451 43.8329C148.209 44.5118 147.789 45.0644 147.191 45.491L146.246 44.0723Z" fill="black"/>
<path d="M141.446 58.574L155.249 53.9875L158.017 62.3181L156.535 62.8108L154.322 56.1517L149.658 57.7014L151.727 63.9291L150.244 64.4218L148.175 58.1941L143.484 59.7528L145.733 66.5197L144.25 67.0124L141.446 58.574Z" fill="black"/>
<path d="M145.921 78.8806L145.747 74.3953L160.281 73.8313L160.463 78.5153C160.518 79.9252 160.273 81.143 159.73 82.1686C159.192 83.194 158.392 83.9951 157.329 84.5718C156.271 85.1483 154.99 85.4657 153.485 85.5241C151.971 85.5828 150.657 85.3637 149.543 84.8668C148.434 84.3696 147.566 83.6167 146.939 82.6081C146.318 81.5992 145.978 80.3567 145.921 78.8806ZM147.376 76.0948L147.478 78.7064C147.524 79.9082 147.795 80.8951 148.289 81.6673C148.783 82.4394 149.466 83.0028 150.338 83.3576C151.209 83.7123 152.236 83.8667 153.419 83.8208C154.592 83.7753 155.595 83.5445 156.427 83.1284C157.264 82.7121 157.894 82.1143 158.319 81.3349C158.748 80.5554 158.941 79.5978 158.897 78.4623L158.788 75.6519L147.376 76.0948Z" fill="black"/>
</svg>
